REM DIRINDEX 1\2,1\3
REM DIRNAME cjc143,folder01,folder02
TITLE ""
FILE "2000 phrasesTrack29.mp3" MP3
  TRACK 01 AUDIO
    TITLE "2:cjc143_1003"
    INDEX 01 00:00:00
  TRACK 02 AUDIO
    TITLE "0:"
    INDEX 01 00:00:62
  TRACK 03 AUDIO
    TITLE "2:cjc143_1004"
    INDEX 01 00:01:30
  TRACK 04 AUDIO
    TITLE "0:"
    INDEX 01 00:02:34
  TRACK 05 AUDIO
    TITLE "2:cjc143_1005"
    INDEX 01 00:03:00
  TRACK 06 AUDIO
    TITLE "0:"
    INDEX 01 00:04:11
  TRACK 07 AUDIO
    TITLE "2:cjc143_1006"
    INDEX 01 00:04:54
  TRACK 08 AUDIO
    TITLE "0:"
    INDEX 01 00:06:08
  TRACK 09 AUDIO
    TITLE "2:cjc143_1007"
    INDEX 01 00:06:51
  TRACK 10 AUDIO
    TITLE "0:"
    INDEX 01 00:07:72
  TRACK 11 AUDIO
    TITLE "2:cjc143_1008"
    INDEX 01 00:08:40
  TRACK 12 AUDIO
    TITLE "0:"
    INDEX 01 00:09:59
  TRACK 13 AUDIO
    TITLE "2:cjc143_1009"
    INDEX 01 00:10:25
  TRACK 14 AUDIO
    TITLE "0:"
    INDEX 01 00:11:44
  TRACK 15 AUDIO
    TITLE "2:cjc143_1010"
    INDEX 01 00:12:12
  TRACK 16 AUDIO
    TITLE "0:"
    INDEX 01 00:13:41
  TRACK 17 AUDIO
    TITLE "2:cjc143_1011"
    INDEX 01 00:14:11
  TRACK 18 AUDIO
    TITLE "0:"
    INDEX 01 00:15:28
  TRACK 19 AUDIO
    TITLE "2:cjc143_1012"
    INDEX 01 00:15:42
  TRACK 20 AUDIO
    TITLE "0:"
    INDEX 01 00:16:69
  TRACK 21 AUDIO
    TITLE "2:cjc143_1013"
    INDEX 01 00:17:41
  TRACK 22 AUDIO
    TITLE "0:"
    INDEX 01 00:18:68
  TRACK 23 AUDIO
    TITLE "2:cjc143_1014"
    INDEX 01 00:19:40
  TRACK 24 AUDIO
    TITLE "0:"
    INDEX 01 00:20:69
  TRACK 25 AUDIO
    TITLE "2:cjc143_1015"
    INDEX 01 00:21:74
  TRACK 26 AUDIO
    TITLE "0:"
    INDEX 01 00:23:22
  TRACK 27 AUDIO
    TITLE "2:cjc143_1016"
    INDEX 01 00:23:69
  TRACK 28 AUDIO
    TITLE "0:"
    INDEX 01 00:25:17
  TRACK 29 AUDIO
    TITLE "2:cjc143_1017"
    INDEX 01 00:25:62
  TRACK 30 AUDIO
    TITLE "0:"
    INDEX 01 00:27:39
  TRACK 31 AUDIO
    TITLE "2:cjc143_1018"
    INDEX 01 00:28:15
  TRACK 32 AUDIO
    TITLE "0:"
    INDEX 01 00:29:70
  TRACK 33 AUDIO
    TITLE "2:cjc143_1019"
    INDEX 01 00:30:40
  TRACK 34 AUDIO
    TITLE "0:"
    INDEX 01 00:32:03
  TRACK 35 AUDIO
    TITLE "2:cjc143_1020"
    INDEX 01 00:32:52
  TRACK 36 AUDIO
    TITLE "0:"
    INDEX 01 00:34:20
  TRACK 37 AUDIO
    TITLE "2:cjc143_1021"
    INDEX 01 00:34:67
  TRACK 38 AUDIO
    TITLE "0:"
    INDEX 01 00:36:13
  TRACK 39 AUDIO
    TITLE "2:cjc143_1022"
    INDEX 01 00:36:56
  TRACK 40 AUDIO
    TITLE "0:"
    INDEX 01 00:38:02
  TRACK 41 AUDIO
    TITLE "2:cjc143_1023"
    INDEX 01 00:38:47
  TRACK 42 AUDIO
    TITLE "0:"
    INDEX 01 00:40:01
  TRACK 43 AUDIO
    TITLE "2:cjc143_1024"
    INDEX 01 00:40:46
  TRACK 44 AUDIO
    TITLE "0:"
    INDEX 01 00:42:06
  TRACK 45 AUDIO
    TITLE "2:cjc143_1025"
    INDEX 01 00:42:53
  TRACK 46 AUDIO
    TITLE "0:"
    INDEX 01 00:44:48
  TRACK 47 AUDIO
    TITLE "2:cjc143_1026"
    INDEX 01 00:45:16
  TRACK 48 AUDIO
    TITLE "0:"
    INDEX 01 00:46:64
  TRACK 49 AUDIO
    TITLE "2:cjc143_1027"
    INDEX 01 00:47:32
  TRACK 50 AUDIO
    TITLE "0:"
    INDEX 01 00:48:65
  TRACK 51 AUDIO
    TITLE "2:cjc143_1028"
    INDEX 01 00:49:33
  TRACK 52 AUDIO
    TITLE "0:"
    INDEX 01 00:50:66
  TRACK 53 AUDIO
    TITLE "2:cjc143_1029"
    INDEX 01 00:51:34
  TRACK 54 AUDIO
    TITLE "0:"
    INDEX 01 00:52:53
  TRACK 55 AUDIO
    TITLE "2:cjc143_1030"
    INDEX 01 00:53:23
  TRACK 56 AUDIO
    TITLE "0:"
    INDEX 01 00:54:44
  TRACK 57 AUDIO
    TITLE "2:cjc143_1031"
    INDEX 01 00:55:14
  TRACK 58 AUDIO
    TITLE "0:"
    INDEX 01 00:56:37
  TRACK 59 AUDIO
    TITLE "2:cjc143_1032"
    INDEX 01 00:57:05
  TRACK 60 AUDIO
    TITLE "0:"
    INDEX 01 00:58:34
  TRACK 61 AUDIO
    TITLE "2:cjc143_1033"
    INDEX 01 00:59:02
  TRACK 62 AUDIO
    TITLE "0:"
    INDEX 01 01:00:29
  TRACK 63 AUDIO
    TITLE "2:cjc143_1034"
    INDEX 01 01:00:68
  TRACK 64 AUDIO
    TITLE "0:"
    INDEX 01 01:02:10
  TRACK 65 AUDIO
    TITLE "2:cjc143_1035"
    INDEX 01 01:02:55
  TRACK 66 AUDIO
    TITLE "0:"
    INDEX 01 01:04:00
  TRACK 67 AUDIO
    TITLE "2:cjc143_1036"
    INDEX 01 01:04:45
  TRACK 68 AUDIO
    TITLE "0:"
    INDEX 01 01:05:64
  TRACK 69 AUDIO
    TITLE "2:cjc143_1037"
    INDEX 01 01:06:34
  TRACK 70 AUDIO
    TITLE "0:"
    INDEX 01 01:07:51
